<svg xmlns="http://www.w3.org/2000/svg" xmlns:xlink="http://www.w3.org/1999/xlink" width="434.412" height="81.378" viewBox="0 0 434.412 81.378"><defs><linearGradient id="a" x1="0.052" x2="1.052" y2="-0.992" gradientUnits="objectBoundingBox"><stop offset="0" stop-color="#3c709d"/><stop offset="1" stop-color="#22416c"/></linearGradient></defs><path d="M49.7-11.385H24.948L21.186,0H.792L26.235-69.8H48.609L73.953,0H53.46Zm-4.851-14.85L37.323-48.807,29.9-26.235ZM99.693-47.817A15.929,15.929,0,0,1,106.128-54a20.463,20.463,0,0,1,9.8-2.227,21.792,21.792,0,0,1,12.029,3.465,23.712,23.712,0,0,1,8.514,9.9,34.139,34.139,0,0,1,3.118,15.048,34.463,34.463,0,0,1-3.118,15.1,23.656,23.656,0,0,1-8.514,9.95A21.792,21.792,0,0,1,115.929.693a20.463,20.463,0,0,1-9.8-2.228,15.928,15.928,0,0,1-6.435-6.187V0h-19.4V-73.26h19.4Zm20.2,20q0-5.445-2.921-8.464a9.6,9.6,0,0,0-7.178-3.02,9.521,9.521,0,0,0-7.177,3.069q-2.92,3.069-2.921,8.415,0,5.445,2.921,8.514a9.521,9.521,0,0,0,7.177,3.069,9.449,9.449,0,0,0,7.178-3.119A11.887,11.887,0,0,0,119.889-27.819ZM157.41-60.687a11.85,11.85,0,0,1-8.266-2.822,9.144,9.144,0,0,1-3.118-7.078,9.406,9.406,0,0,1,3.118-7.227,11.725,11.725,0,0,1,8.266-2.871,11.583,11.583,0,0,1,8.167,2.871,9.406,9.406,0,0,1,3.118,7.227,9.144,9.144,0,0,1-3.118,7.078A11.706,11.706,0,0,1,157.41-60.687Zm9.6,5.148V0h-19.4V-55.539ZM210.87-16.533V0h-8.415Q181.17,0,181.17-21.087V-39.4h-6.831V-55.539h6.831V-69h19.5v13.464h10.1V-39.4h-10.1V-20.79a4.36,4.36,0,0,0,1.04,3.267,5.027,5.027,0,0,0,3.514.99Zm18.711-44.154a11.85,11.85,0,0,1-8.266-2.822,9.144,9.144,0,0,1-3.118-7.078,9.406,9.406,0,0,1,3.118-7.227,11.725,11.725,0,0,1,8.266-2.871,11.583,11.583,0,0,1,8.167,2.871,9.406,9.406,0,0,1,3.118,7.227,9.144,9.144,0,0,1-3.118,7.078A11.706,11.706,0,0,1,229.581-60.687Zm9.6,5.148V0h-19.4V-55.539ZM285.021,0,269.676-22.77V0h-19.4V-73.26h19.4v39.5l15.345-21.78h23.265L286.407-27.621,308.682,0Zm64.053,0L333.729-22.77V0h-19.4V-73.26h19.4v39.5l15.345-21.78h23.265L350.46-27.621,372.735,0ZM435.2-55.539V0H415.7V-7.92a18.3,18.3,0,0,1-6.831,6.089,20.9,20.9,0,0,1-10,2.327q-9.7,0-15.3-6.386t-5.593-17.375V-55.539h19.3v29.8a10.566,10.566,0,0,0,2.525,7.475,8.681,8.681,0,0,0,6.682,2.723,8.645,8.645,0,0,0,6.732-2.723A10.7,10.7,0,0,0,415.7-25.74v-29.8Z" transform="translate(-0.792 80.685)" fill="url(#a)"/></svg>